<?xml version="1.0" encoding="utf-8"?>
<!-- Generator: Adobe Illustrator 24.3.0, SVG Export Plug-In . SVG Version: 6.00 Build 0)  -->
<svg version="1.1" id="Calque_1" xmlns="http://www.w3.org/2000/svg" xmlns:xlink="http://www.w3.org/1999/xlink" x="0px" y="0px"
	 viewBox="0 0 113.4 113.4" style="enable-background:new 0 0 113.4 113.4;" xml:space="preserve">
<style type="text/css">
	.st0{fill:#FFFFFF;}
	.st1{fill:#23490D;}
	.st2{fill:none;stroke:#23490D;stroke-width:5;stroke-miterlimit:10;}
</style>
<g>
	<path class="st0" d="M34.4,57.5c-13.2,0-24-10.8-24-24s10.8-24,24-24s24,10.8,24,24c0,5.7-2.1,11.3-5.8,15.6
		c-2.6,3.1-6,5.5-9.8,6.9C40.1,57,37.3,57.5,34.4,57.5z"/>
	<path class="st1" d="M34.4,12c11.8,0,21.5,9.6,21.5,21.5c0,5.1-1.8,10.1-5.2,14c-2.4,2.8-5.4,4.9-8.8,6.1C39.5,54.5,37,55,34.4,55
		c-11.8,0-21.5-9.6-21.5-21.5S22.6,12,34.4,12 M34.4,7C19.8,7,7.9,18.9,7.9,33.5C7.9,48.1,19.8,60,34.4,60c3.2,0,6.3-0.6,9.2-1.6
		c4.2-1.6,8-4.2,10.9-7.6c4-4.6,6.4-10.7,6.4-17.3C60.9,18.9,49.1,7,34.4,7L34.4,7z"/>
</g>
<g>
	<path class="st0" d="M69.8,93.6C69.8,93.6,69.8,93.6,69.8,93.6L47.3,59.4c2.5-1.2,4.8-2.8,6.8-4.7L76.7,89L69.8,93.6z"/>
	<path class="st1" d="M53.6,58.4l19.7,29.9l-2.8,1.8L50.9,60.3C51.8,59.7,52.7,59.1,53.6,58.4 M54.5,50.8c-2.9,3.4-6.6,6-10.9,7.6
		c0,0,0,0.1,0.1,0.1l24,36.5c0.5,0.7,1.3,1.1,2.1,1.1c0.5,0,1-0.1,1.4-0.4l6.9-4.5c1.2-0.8,1.5-2.4,0.7-3.5l-24-36.5
		C54.7,51,54.6,50.9,54.5,50.8L54.5,50.8z"/>
</g>
<g>
	<line class="st2" x1="55.1" y1="10.1" x2="105.3" y2="10.1"/>
</g>
<g>
	<line class="st2" x1="63.6" y1="34.4" x2="104.4" y2="34.4"/>
</g>
<g>
	<line class="st2" x1="71.7" y1="57.7" x2="104.4" y2="57.7"/>
</g>
<g>
	<line class="st2" x1="7.9" y1="80.2" x2="48.3" y2="80.2"/>
</g>
<g>
	<line class="st2" x1="79.8" y1="80.2" x2="104.4" y2="80.2"/>
</g>
<g>
	<line class="st2" x1="7.5" y1="103.5" x2="105.3" y2="103.5"/>
</g>
</svg>
